<svg version="1.1" id="Layer_1" xmlns="http://www.w3.org/2000/svg" xmlns:xlink="http://www.w3.org/1999/xlink" x="0px" y="0px"
	 width="100%" viewBox="0 0 280 280" enable-background="new 0 0 280 280" xml:space="preserve">
<path fill="#FEFFFF" opacity="1.000000" stroke="none" 
	d="
M135.000000,281.000000 
	C90.000000,281.000000 45.500000,281.000000 1.000000,281.000000 
	C1.000000,187.666672 1.000000,94.333336 1.000000,1.000000 
	C94.333336,1.000000 187.666672,1.000000 281.000000,1.000000 
	C281.000000,94.333336 281.000000,187.666672 281.000000,281.000000 
	C232.500000,281.000000 184.000000,281.000000 135.000000,281.000000 
M74.067841,194.140640 
	C69.100418,188.937790 62.923378,184.434631 59.423012,178.383194 
	C52.605656,166.597321 47.287903,153.944016 41.094662,141.123322 
	C33.356888,141.123322 24.557829,141.123322 15.406801,141.123322 
	C20.881191,160.024017 28.252695,177.781769 42.651138,191.581116 
	C47.373440,196.106918 52.908218,200.209152 60.100025,200.236877 
	C67.747192,200.266342 75.394875,200.160049 83.669769,200.423538 
	C92.959557,201.061417 99.890991,196.346237 106.109070,190.295303 
	C117.849907,178.870026 124.213127,164.309097 129.633652,149.238708 
	C133.222015,139.262177 136.295914,129.070007 140.439606,119.331581 
	C145.598755,107.206627 152.338516,95.967316 163.773712,87.964287 
	C180.947922,101.970795 188.644196,121.341949 193.978653,142.604065 
	C192.256805,147.439133 190.734528,152.356644 188.777405,157.094528 
	C181.548920,174.593674 172.716888,190.873383 153.693527,200.105972 
	C162.743484,200.105972 170.710281,200.432816 178.626602,199.943375 
	C181.745758,199.750519 184.981735,198.124603 187.767822,196.479462 
	C196.716797,191.195175 202.588821,182.952087 208.668076,174.825272 
	C211.052612,178.200455 213.266830,181.713104 215.857010,184.922333 
	C221.334930,191.709518 227.505554,198.388260 236.357376,199.692841 
	C244.706314,200.923294 253.379013,199.956894 260.933594,199.956894 
	C256.272491,196.258881 250.172562,192.984772 246.291565,187.987396 
	C239.851120,179.694336 234.200974,170.617249 229.434479,161.251282 
	C225.961700,154.427399 224.447327,146.606827 222.541168,138.649323 
	C226.507446,129.199295 230.033997,119.533043 234.548340,110.352509 
	C240.554733,98.137733 249.115555,88.039284 263.319458,81.778137 
	C255.742584,81.778137 249.612457,82.130623 243.538589,81.696205 
	C234.235336,81.030823 227.070160,85.062233 221.102402,91.439209 
	C216.394043,96.470444 212.324371,102.099411 207.426575,106.988289 
	C204.905594,103.310432 202.732651,99.322639 199.790985,96.019409 
	C193.711624,89.192833 187.281616,82.382736 177.336624,81.864494 
	C169.554230,81.458946 161.730209,81.852219 153.326126,81.572395 
	C146.509140,81.225716 140.768265,83.753654 135.429321,87.828102 
	C128.014084,93.487083 122.122841,100.578209 118.331284,108.850204 
	C112.350182,121.899109 106.968178,135.275513 102.225166,148.825714 
	C96.223274,165.972427 88.373718,181.780899 74.067841,194.140640 
M161.795288,154.021439 
	C168.117203,154.525055 173.016739,152.162445 175.550415,146.282623 
	C177.765182,141.142929 176.973816,136.131195 173.060760,131.920761 
	C169.270630,127.842613 163.084518,126.720474 157.870377,129.001724 
	C152.981079,131.140854 149.969803,136.302429 150.359543,141.875885 
	C150.798355,148.151016 153.956543,151.749603 161.795288,154.021439 
z"/>
<path fill="#022F73" opacity="1.000000" stroke="none" 
	d="
M194.287872,141.874908 
	C188.644196,121.341949 180.947922,101.970795 163.251862,87.587067 
	C159.794907,85.436760 156.859787,83.663666 153.924683,81.890579 
	C161.730209,81.852219 169.554230,81.458946 177.336624,81.864494 
	C187.281616,82.382736 193.711624,89.192833 199.790985,96.019409 
	C202.732651,99.322639 204.905594,103.310432 207.753906,107.546371 
	C209.228592,110.115463 210.575439,112.040268 211.488129,114.152664 
	C215.086090,122.479988 218.547668,130.866226 222.059860,139.230606 
	C224.447327,146.606827 225.961700,154.427399 229.434479,161.251282 
	C234.200974,170.617249 239.851120,179.694336 246.291565,187.987396 
	C250.172562,192.984772 256.272491,196.258881 260.933594,199.956894 
	C253.379013,199.956894 244.706314,200.923294 236.357376,199.692841 
	C227.505554,198.388260 221.334930,191.709518 215.857010,184.922333 
	C213.266830,181.713104 211.052612,178.200455 208.297119,174.297333 
	C203.380066,163.137909 198.833969,152.506409 194.287872,141.874908 
z"/>
<path fill="#0386CA" opacity="1.000000" stroke="none" 
	d="
M153.625397,81.731491 
	C156.859787,83.663666 159.794907,85.436760 162.923096,87.484421 
	C152.338516,95.967316 145.598755,107.206627 140.439606,119.331581 
	C136.295914,129.070007 133.222015,139.262177 129.633652,149.238708 
	C124.213127,164.309097 117.849907,178.870026 106.109070,190.295303 
	C99.890991,196.346237 92.959557,201.061417 83.181198,199.964020 
	C80.044083,197.738846 77.395531,195.973206 74.746979,194.207565 
	C88.373718,181.780899 96.223274,165.972427 102.225166,148.825714 
	C106.968178,135.275513 112.350182,121.899109 118.331284,108.850204 
	C122.122841,100.578209 128.014084,93.487083 135.429321,87.828102 
	C140.768265,83.753654 146.509140,81.225716 153.625397,81.731491 
z"/>
<path fill="#032F74" opacity="1.000000" stroke="none" 
	d="
M74.407410,194.174103 
	C77.395531,195.973206 80.044083,197.738846 82.867477,199.808777 
	C75.394875,200.160049 67.747192,200.266342 60.100025,200.236877 
	C52.908218,200.209152 47.373440,196.106918 42.651138,191.581116 
	C28.252695,177.781769 20.881191,160.024017 15.406801,141.123322 
	C24.557829,141.123322 33.356888,141.123322 41.094662,141.123322 
	C47.287903,153.944016 52.605656,166.597321 59.423012,178.383194 
	C62.923378,184.434631 69.100418,188.937790 74.407410,194.174103 
z"/>
<path fill="#0386C9" opacity="1.000000" stroke="none" 
	d="
M194.133270,142.239487 
	C198.833969,152.506409 203.380066,163.137909 207.996979,174.087250 
	C202.588821,182.952087 196.716797,191.195175 187.767822,196.479462 
	C184.981735,198.124603 181.745758,199.750519 178.626602,199.943375 
	C170.710281,200.432816 162.743484,200.105972 153.693527,200.105972 
	C172.716888,190.873383 181.548920,174.593674 188.777405,157.094528 
	C190.734528,152.356644 192.256805,147.439133 194.133270,142.239487 
z"/>
<path fill="#0386C9" opacity="1.000000" stroke="none" 
	d="
M222.300507,138.939972 
	C218.547668,130.866226 215.086090,122.479988 211.488129,114.152664 
	C210.575439,112.040268 209.228592,110.115463 208.026123,107.783691 
	C212.324371,102.099411 216.394043,96.470444 221.102402,91.439209 
	C227.070160,85.062233 234.235336,81.030823 243.538589,81.696205 
	C249.612457,82.130623 255.742584,81.778137 263.319458,81.778137 
	C249.115555,88.039284 240.554733,98.137733 234.548340,110.352509 
	C230.033997,119.533043 226.507446,129.199295 222.300507,138.939972 
z"/>
<path fill="#063275" opacity="1.000000" stroke="none" 
	d="
M161.380005,153.990707 
	C153.956543,151.749603 150.798355,148.151016 150.359543,141.875885 
	C149.969803,136.302429 152.981079,131.140854 157.870377,129.001724 
	C163.084518,126.720474 169.270630,127.842613 173.060760,131.920761 
	C176.973816,136.131195 177.765182,141.142929 175.550415,146.282623 
	C173.016739,152.162445 168.117203,154.525055 161.380005,153.990707 
z"/>
</svg>