<svg xmlns="http://www.w3.org/2000/svg" width="64" height="64" viewBox="0 0 64 64">
  <!-- Connection lines: Input to Hidden -->
  <line x1="12" y1="16" x2="32" y2="8" stroke="#6366f1" stroke-width="1.2" opacity="0.5"/>
  <line x1="12" y1="16" x2="32" y2="24" stroke="#6366f1" stroke-width="1.2" opacity="0.5"/>
  <line x1="12" y1="16" x2="32" y2="40" stroke="#6366f1" stroke-width="1.2" opacity="0.5"/>
  <line x1="12" y1="16" x2="32" y2="56" stroke="#6366f1" stroke-width="1.2" opacity="0.5"/>
  <line x1="12" y1="32" x2="32" y2="8" stroke="#6366f1" stroke-width="1.2" opacity="0.5"/>
  <line x1="12" y1="32" x2="32" y2="24" stroke="#6366f1" stroke-width="1.2" opacity="0.5"/>
  <line x1="12" y1="32" x2="32" y2="40" stroke="#6366f1" stroke-width="1.2" opacity="0.5"/>
  <line x1="12" y1="32" x2="32" y2="56" stroke="#6366f1" stroke-width="1.2" opacity="0.5"/>
  <line x1="12" y1="48" x2="32" y2="8" stroke="#6366f1" stroke-width="1.2" opacity="0.5"/>
  <line x1="12" y1="48" x2="32" y2="24" stroke="#6366f1" stroke-width="1.2" opacity="0.5"/>
  <line x1="12" y1="48" x2="32" y2="40" stroke="#6366f1" stroke-width="1.2" opacity="0.5"/>
  <line x1="12" y1="48" x2="32" y2="56" stroke="#6366f1" stroke-width="1.2" opacity="0.5"/>
  <!-- Connection lines: Hidden to Output -->
  <line x1="32" y1="8" x2="52" y2="24" stroke="#8b5cf6" stroke-width="1.2" opacity="0.5"/>
  <line x1="32" y1="8" x2="52" y2="40" stroke="#8b5cf6" stroke-width="1.2" opacity="0.5"/>
  <line x1="32" y1="24" x2="52" y2="24" stroke="#8b5cf6" stroke-width="1.2" opacity="0.5"/>
  <line x1="32" y1="24" x2="52" y2="40" stroke="#8b5cf6" stroke-width="1.2" opacity="0.5"/>
  <line x1="32" y1="40" x2="52" y2="24" stroke="#8b5cf6" stroke-width="1.2" opacity="0.5"/>
  <line x1="32" y1="40" x2="52" y2="40" stroke="#8b5cf6" stroke-width="1.2" opacity="0.5"/>
  <line x1="32" y1="56" x2="52" y2="24" stroke="#8b5cf6" stroke-width="1.2" opacity="0.5"/>
  <line x1="32" y1="56" x2="52" y2="40" stroke="#8b5cf6" stroke-width="1.2" opacity="0.5"/>
  <!-- Input layer nodes -->
  <circle cx="12" cy="16" r="4" fill="#6366f1"/>
  <circle cx="12" cy="32" r="4" fill="#6366f1"/>
  <circle cx="12" cy="48" r="4" fill="#6366f1"/>
  <!-- Hidden layer nodes -->
  <circle cx="32" cy="8" r="4" fill="#7c3aed"/>
  <circle cx="32" cy="24" r="4" fill="#7c3aed"/>
  <circle cx="32" cy="40" r="4" fill="#7c3aed"/>
  <circle cx="32" cy="56" r="4" fill="#7c3aed"/>
  <!-- Output layer nodes -->
  <circle cx="52" cy="24" r="4.5" fill="#a78bfa"/>
  <circle cx="52" cy="40" r="4.5" fill="#a78bfa"/>
</svg>
