<svg version="1.1" id="Layer_1" xmlns="http://www.w3.org/2000/svg" xmlns:xlink="http://www.w3.org/1999/xlink" x="0px" y="0px"
	 width="100%" viewBox="0 0 1024 1024" enable-background="new 0 0 1024 1024" xml:space="preserve">
<path fill="#000000" opacity="1.000000" stroke="none" 
	d="
M634.112244,197.742401 
	C648.283203,191.312973 669.643982,199.636292 671.754028,222.335953 
	C674.663879,253.639801 670.246826,283.966125 655.046204,312.326965 
	C636.388733,347.137543 608.306641,371.582611 573.713013,389.425446 
	C534.933228,409.427490 496.229645,429.617706 459.257416,452.839600 
	C438.693726,465.755402 421.234955,482.082458 410.468414,504.470032 
	C395.781799,535.008911 401.228546,562.937805 421.622803,588.826233 
	C427.004364,595.657532 433.122772,601.795532 440.379700,606.674377 
	C445.384094,610.038879 446.516113,609.572205 447.997345,603.869751 
	C449.943207,596.378601 454.607452,592.695984 462.385529,592.681580 
	C492.875275,592.625183 523.365112,592.602417 553.854919,592.579468 
	C555.130920,592.578552 556.572998,592.127930 557.524109,593.724915 
	C557.705872,596.457092 555.252075,597.069824 553.541321,598.117737 
	C532.800415,610.821960 511.316528,622.224426 490.157104,634.196106 
	C471.896515,644.527588 453.600342,654.808838 435.891083,666.062622 
	C431.784485,668.672241 428.739594,668.796265 424.727905,666.043091 
	C389.326447,641.747925 361.403992,611.564819 351.801575,568.420044 
	C342.382355,526.098450 351.360657,487.265808 377.707825,452.566986 
	C398.038208,425.792206 425.218567,407.799805 454.044678,391.620453 
	C489.918854,371.485107 526.983704,353.471130 562.057983,331.952606 
	C590.979126,314.209137 608.887695,288.022125 616.315857,254.898621 
	C618.475464,245.268463 617.944763,235.353394 617.772583,225.533783 
	C617.554260,213.086548 622.392578,203.615021 634.112244,197.742401 
z"/>
<path fill="#000000" opacity="1.000000" stroke="none" 
	d="
M378.731842,743.781006 
	C396.987213,717.965454 420.494476,698.796021 447.552887,683.471924 
	C481.617218,664.180054 516.217651,645.893799 550.802490,627.578552 
	C572.487183,616.094910 591.582642,601.721741 605.347839,581.106567 
	C613.507324,568.886719 619.038330,555.577881 619.650513,540.666016 
	C620.579102,518.048157 611.011963,499.370087 597.229614,482.405060 
	C591.962036,475.921112 585.853516,470.246674 579.133057,465.257446 
	C577.818909,464.281799 576.627625,463.056427 574.971313,462.939056 
	C573.189026,463.960419 573.510010,465.589874 573.371155,467.023773 
	C572.490662,476.120514 566.829773,481.303528 557.434753,481.319946 
	C530.110474,481.367645 502.786072,481.337738 475.461731,481.338287 
	C470.574127,481.338379 465.686493,481.338318 460.889709,481.338318 
	C460.406677,477.699890 462.746429,477.145721 464.269287,476.146637 
	C481.549042,464.809875 499.444519,454.503998 517.547729,444.554108 
	C539.733032,432.360565 562.011902,420.334412 584.076904,407.927338 
	C588.713501,405.320129 592.033203,405.141876 596.610962,408.270660 
	C624.398010,427.262360 646.747620,450.975647 661.394470,481.499939 
	C669.428162,498.242310 672.862183,515.977844 673.472717,534.568542 
	C674.473022,565.029602 666.101624,592.428406 648.685608,617.208984 
	C634.259033,637.735901 615.333923,653.420776 594.108032,666.311890 
	C572.751282,679.282410 549.812561,689.353577 527.904053,701.341492 
	C509.063293,711.650696 489.352905,720.502380 471.523926,732.498230 
	C441.723785,752.548462 417.619202,777.517944 407.066254,813.120911 
	C405.313049,819.035767 404.689850,825.176575 403.605042,831.226624 
	C400.623871,847.853149 389.763519,856.707581 374.215027,855.344360 
	C361.741058,854.250732 350.802063,841.089661 350.859467,826.462036 
	C350.949188,803.586670 356.491760,782.030823 367.523895,761.921387 
	C370.892273,755.781433 374.407288,749.745056 378.731842,743.781006 
z"/>
<path fill="#000000" opacity="1.000000" stroke="none" 
	d="
M412.584015,367.436157 
	C385.336884,345.544586 366.212280,318.494446 356.212097,285.231567 
	C352.655396,273.401123 350.283936,261.382751 350.635315,248.908752 
	C350.879120,240.252792 350.551422,231.581940 350.714722,222.922195 
	C350.961121,209.855453 360.192810,198.705368 372.721130,196.046524 
	C383.245148,193.813049 395.343994,200.125671 400.359924,210.486801 
	C402.729828,215.382187 403.686432,220.536346 403.346222,225.981750 
	C402.071625,246.381821 406.300446,265.713654 415.113342,284.044922 
	C422.709137,299.844482 434.079987,312.507874 448.313416,322.636780 
	C449.898895,323.765045 451.533508,325.001129 453.605225,325.139191 
	C453.892090,324.874634 454.280945,324.692780 454.345551,324.430939 
	C456.801788,314.470337 458.843719,312.828186 469.077667,312.826538 
	C491.900787,312.822845 514.723938,312.829285 537.546875,312.893982 
	C539.440796,312.899353 541.548523,312.256897 543.388245,314.030884 
	C542.783813,316.416016 540.578918,317.132294 538.865784,318.219330 
	C516.491333,332.416840 492.755890,344.238434 469.933899,357.654785 
	C458.452271,364.404449 446.979736,371.179718 435.701965,378.260101 
	C432.191132,380.464233 429.473877,380.661743 426.278168,378.061218 
	C421.889984,374.490234 417.335876,371.123138 412.584015,367.436157 
z"/>
<path fill="#000000" opacity="1.000000" stroke="none" 
	d="
M613.091919,710.888428 
	C642.666138,736.872375 662.699158,768.164062 669.830261,806.914551 
	C671.750427,817.348389 673.248047,828.037354 668.608765,838.339966 
	C663.057678,850.667480 650.905762,857.425232 638.257812,855.230225 
	C627.360046,853.338928 619.193420,843.487000 617.675354,830.532288 
	C613.881409,798.154480 598.759094,772.033813 573.905334,751.260376 
	C571.337769,749.114258 568.695862,748.139587 565.298950,748.149536 
	C543.636108,748.212830 521.972656,748.103027 500.309631,748.002869 
	C498.390686,747.994019 496.297272,748.598816 494.564056,746.996460 
	C494.478516,744.574158 496.506256,744.194092 498.010834,743.329834 
	C525.897705,727.310425 554.395447,712.411926 582.698547,697.155945 
	C590.455444,692.974854 590.416809,692.927673 597.525940,698.580933 
	C602.610718,702.624390 607.720520,706.636475 613.091919,710.888428 
z"/>
<path fill="#000000" opacity="1.000000" stroke="none" 
	d="
M562.000000,558.282471 
	C521.697021,558.275452 481.894073,558.268799 442.091095,558.263489 
	C429.814758,558.261841 420.931122,549.810547 420.761566,537.967590 
	C420.588074,525.850098 429.465179,516.718262 441.744476,516.652344 
	C487.026550,516.409302 532.308899,516.176270 577.591370,516.081055 
	C594.244934,516.046082 605.161987,531.776306 598.631409,546.257812 
	C595.166565,553.940979 588.775269,557.821533 580.483337,558.236511 
	C574.503052,558.535828 568.495422,558.287292 562.000000,558.282471 
z"/>
<path fill="#000000" opacity="1.000000" stroke="none" 
	d="
M536.999878,279.328491 
	C507.514984,279.322357 478.530060,279.320312 449.545166,279.307709 
	C436.587738,279.302094 428.534027,271.407104 428.046753,258.260773 
	C427.593292,246.026993 435.944336,237.254440 448.770844,236.879044 
	C457.592468,236.620865 466.426819,236.782608 475.255463,236.780670 
	C507.405365,236.773605 539.555420,236.715225 571.705017,236.814911 
	C580.837036,236.843216 588.299194,240.194260 592.295959,249.042679 
	C596.027405,257.303741 594.710022,264.974731 589.162354,271.946930 
	C585.188232,276.941559 579.888245,279.348236 573.481201,279.336945 
	C561.487427,279.315826 549.493713,279.329254 536.999878,279.328491 
z"/>
<path fill="#000000" opacity="1.000000" stroke="none" 
	d="
M504.000000,780.913818 
	C526.817200,780.910400 549.134644,780.853516 571.451599,780.923950 
	C583.362061,780.961548 591.247498,787.263794 593.703186,798.406067 
	C596.351501,810.422180 586.490234,823.291138 574.230530,823.323303 
	C532.261108,823.433411 490.291138,823.415100 448.321594,823.334106 
	C438.998840,823.316101 430.202820,815.432251 428.785522,806.327637 
	C427.091797,795.447571 431.926666,786.429199 441.345001,782.856567 
	C445.115753,781.426208 448.950897,780.722900 453.037048,780.760681 
	C469.857086,780.916321 486.678864,780.879456 504.000000,780.913818 
z"/>
</svg>