<svg version="1.1" id="Layer_1" xmlns="http://www.w3.org/2000/svg" xmlns:xlink="http://www.w3.org/1999/xlink" x="0px" y="0px"
	 width="100%" viewBox="0 0 1024 1024" enable-background="new 0 0 1024 1024" xml:space="preserve">
<path fill="#000000" opacity="1.000000" stroke="none" 
	d="
M466.000061,155.726013 
	C520.155762,155.729050 573.811462,155.715164 627.467102,155.744110 
	C642.626831,155.752289 655.346558,164.140381 660.448486,177.334534 
	C667.808105,196.367294 655.976013,217.133682 635.801270,220.287796 
	C631.923340,220.894073 631.419250,223.194717 631.421265,226.259903 
	C631.426025,233.412811 631.421570,240.565735 631.419495,247.718643 
	C631.406738,291.876129 631.433350,336.033691 631.316772,380.190918 
	C631.305603,384.418823 632.704773,388.046753 634.586487,391.558594 
	C648.825256,418.132568 663.094543,444.690338 677.439209,471.207275 
	C702.719604,517.939636 728.091125,564.622742 753.363159,611.359558 
	C766.909424,636.411133 780.879578,661.254211 793.679565,686.684082 
	C814.822083,728.687988 815.347717,770.620972 789.872925,811.238586 
	C776.361328,832.781982 756.236084,846.352173 732.781067,855.424377 
	C714.286438,862.577942 694.860901,865.463013 675.426086,868.190063 
	C646.925415,872.189148 618.253296,874.925964 589.563904,876.833069 
	C554.002747,879.196960 518.356689,879.725342 482.685455,878.591736 
	C457.712463,877.798157 432.788208,876.407349 407.921051,874.207214 
	C372.963287,871.114319 337.863281,868.553101 303.858002,859.092407 
	C270.888672,849.919983 244.789597,831.333130 229.371796,800.148926 
	C210.823242,762.632446 211.665649,724.820618 231.164078,687.921448 
	C254.976456,642.858582 279.480072,598.160767 303.718506,553.323303 
	C327.005341,510.246185 350.338257,467.193939 373.643158,424.126587 
	C377.130463,417.682037 380.041260,410.849365 384.153137,404.835022 
	C392.254028,392.986023 394.066284,380.165588 393.887634,366.057678 
	C393.307404,320.241089 393.604156,274.412292 393.763184,228.588928 
	C393.781311,223.358734 392.951599,220.866592 386.879303,219.798065 
	C372.918243,217.341354 362.641144,203.425827 362.689789,188.871994 
	C362.741943,173.264862 372.982544,160.061554 387.617523,156.746323 
	C390.874298,156.008545 394.156219,155.658127 397.517090,155.667862 
	C420.177917,155.733566 442.839050,155.715973 466.000061,155.726013 
M731.418518,673.005920 
	C725.907898,662.729614 720.448608,652.425354 714.877686,642.181824 
	C688.773743,594.182495 662.662903,546.186768 636.506897,498.215759 
	C619.121887,466.331055 601.694214,434.469482 584.189209,402.650635 
	C581.391968,397.566193 579.981689,392.439453 579.992981,386.523254 
	C580.102661,329.195099 579.929077,271.866455 580.018677,214.538223 
	C580.026489,209.543533 578.530945,207.905792 573.479004,207.924927 
	C532.827026,208.078918 492.174011,208.046753 451.521790,207.916779 
	C446.814941,207.901733 444.624939,209.444565 445.195831,214.266052 
	C445.312592,215.252167 445.213409,216.263885 445.213226,217.263794 
	C445.203064,273.425934 445.166107,329.588135 445.222900,385.750214 
	C445.228729,391.525299 444.341309,396.781036 441.413177,401.985931 
	C432.103271,418.534668 423.238983,435.333862 414.176544,452.022156 
	C381.822632,511.601166 349.394775,571.140076 317.125641,630.764954 
	C302.061859,658.598938 286.513062,686.211670 272.628906,714.630615 
	C259.990051,740.500427 262.208252,766.088379 280.238129,789.270447 
	C292.050049,804.457764 308.805542,811.367859 327.070404,814.648987 
	C355.745026,819.800110 384.701630,822.709656 413.747955,825.084351 
	C443.479736,827.515076 473.239929,829.110107 503.035980,829.453308 
	C552.859436,830.027222 602.576904,827.468994 652.051941,821.478821 
	C670.510864,819.243896 689.179871,818.007507 707.188538,812.748779 
	C758.017517,797.905945 770.467346,748.972717 751.945984,711.033997 
	C745.739807,698.321411 738.514404,686.106506 731.418518,673.005920 
z"/>
<path fill="#000000" opacity="1.000000" stroke="none" 
	d="
M301.282074,745.380127 
	C299.855347,734.198120 303.310211,724.540466 308.259583,715.332458 
	C336.334106,663.101135 364.481995,610.909180 392.609528,558.706421 
	C396.244171,551.960693 396.248383,552.000732 403.899017,553.864014 
	C423.712189,558.689453 442.421021,566.644104 461.334778,574.031006 
	C489.451416,585.012024 517.954346,594.908447 548.100098,598.378479 
	C577.737183,601.790100 606.946594,599.877197 634.727905,587.549438 
	C636.247742,586.875061 637.725586,586.090576 639.170532,585.265381 
	C645.170471,581.839172 645.204468,581.804016 648.591675,588.099731 
	C668.321655,624.770874 688.025269,661.456299 707.750732,698.129944 
	C712.633972,707.208801 718.824036,715.650635 721.860413,725.635498 
	C729.984253,752.349915 716.290283,775.242310 687.872986,781.129333 
	C664.738342,785.921997 641.225952,788.410706 617.670349,790.473206 
	C583.295532,793.483032 548.850586,794.895142 514.378601,794.764893 
	C478.081421,794.627747 441.813690,793.190125 405.653534,789.525208 
	C383.471649,787.277039 361.266846,785.291809 339.322144,781.249878 
	C321.604340,777.986572 307.810791,769.690796 302.454224,751.188599 
	C301.947754,749.439270 301.735748,747.604736 301.282074,745.380127 
M670.365234,720.991638 
	C661.337585,716.385315 651.446594,723.381775 648.803223,731.878845 
	C646.365356,739.715027 651.246704,748.457336 659.589478,751.066040 
	C666.952393,753.368469 675.452820,749.295288 678.958862,741.784790 
	C682.499084,734.201233 679.557251,726.592773 670.365234,720.991638 
M644.355652,694.795471 
	C650.526001,693.798279 654.351807,690.277832 654.731018,685.248230 
	C655.191528,679.140137 650.660461,673.615173 644.782959,673.118103 
	C638.213562,672.562378 633.030029,676.830383 632.459900,683.264465 
	C631.940125,689.129395 636.676392,694.061157 644.355652,694.795471 
M608.616028,716.184509 
	C606.732483,721.993958 608.619202,726.471863 613.892944,728.708679 
	C617.638733,730.297424 621.453247,728.938232 623.596313,725.251038 
	C626.056641,721.018005 624.894531,715.539856 620.967834,712.861206 
	C616.910278,710.093323 612.748169,711.019409 608.616028,716.184509 
z"/>
</svg>